<svg width="52" height="38" viewBox="0 0 52 38" fill="none" xmlns="http://www.w3.org/2000/svg">
<rect width="52" height="38" fill="white"/>
<path fill-rule="evenodd" clip-rule="evenodd" d="M19 38C29.4934 38 38 29.4934 38 19C38 8.50659 29.4934 0 19 0C8.50659 0 0 8.50659 0 19C0 29.4934 8.50659 38 19 38Z" fill="#3DDC84"/>
<path d="M40.8072 12.3303C41.491 12.3303 42.2108 12.6239 43.0026 13.2477C43.9743 14.0183 44.6221 14.3853 44.982 14.3853C45.5219 14.3853 45.7738 14.0917 45.7738 13.5413C45.7738 13.2477 45.6298 12.9908 45.3059 12.7706C45.126 12.6606 44.2262 12.2936 42.5347 11.7064C39.7995 10.7156 38.4319 8.91743 38.4319 6.23853C38.4319 4.22018 39.1517 2.6422 40.5913 1.50459C41.8869 0.513761 43.4344 0 45.3059 0C46.9254 0 48.329 0.40367 49.5167 1.17431C50.7044 1.94495 51.3162 2.97248 51.3162 4.22018C51.3162 4.95413 51.1003 5.57798 50.6324 6.09174C50.1645 6.6055 49.5887 6.82569 48.8689 6.82569C48.1131 6.82569 47.2853 6.45872 46.3496 5.72477C45.7738 5.2844 45.3419 5.02752 45.054 5.02752C44.5501 5.02752 44.2982 5.2844 44.2982 5.76147C44.2982 6.23853 44.91 6.6789 46.1697 7.04587C47.8972 7.59633 49.1928 8.25688 50.1285 9.06422C51.3882 10.1284 52 11.5963 52 13.5046C52 15.5963 51.3162 17.211 49.9126 18.3853C48.617 19.4862 46.9254 20 44.838 20C42.7506 20 41.0231 19.4495 39.6555 18.3119C38.5758 17.3945 38 16.367 38 15.156C38 14.3486 38.2519 13.6881 38.7918 13.1376C39.3676 12.6239 40.0154 12.3303 40.8072 12.3303Z" fill="white"/>
</svg>
